<?xml version="1.0" encoding="UTF-8" standalone="no"?>
<!DOCTYPE svg PUBLIC "-//W3C//DTD SVG 1.1//EN" "http://www.w3.org/Graphics/SVG/1.1/DTD/svg11.dtd">
<svg width="100%" height="100%" viewBox="0 0 1024 1024" version="1.1" xmlns="http://www.w3.org/2000/svg" xmlns:xlink="http://www.w3.org/1999/xlink" xml:space="preserve" xmlns:serif="http://www.serif.com/" style="fill-rule:evenodd;clip-rule:evenodd;stroke-linejoin:round;stroke-miterlimit:2;">
    <g transform="matrix(1.172134,0,0,1.172134,-100.940952,-94.872499)">
        <g transform="matrix(4.245867,0,0,2.161815,-1674.011558,-641.896447)">
            <path d="M441.027,598.554C450.663,592.109 523.698,666.018 491.207,481.17C491.207,481.17 448.016,526.987 452.926,509.906C457.063,495.516 496.156,424.869 508.371,402.966C509.001,401.82 509.916,401.516 510.703,402.191C511.49,402.865 511.998,404.391 511.998,406.077C512,450.465 512,635.007 512,666.37C512,668.943 510.943,671.035 509.633,671.056C483.467,670.649 418.996,613.289 441.027,598.554Z" style="fill:rgb(110,231,183);"/>
        </g>
        <g transform="matrix(4.232323,0,0,2.154919,-1667.378441,-639.043722)">
            <path d="M575.259,510.428C579.205,527.596 551.136,490.882 542.809,485.597C537.35,482.133 538.497,490.057 538.497,490.057C538.497,490.057 593.429,570.997 598.419,604.031C603.583,638.211 533.528,672.037 520.654,671.927C519.551,671.904 518.66,670.152 518.65,667.985C518.554,647.724 518.022,533.763 518.022,533.763C518.022,533.763 524.899,595.381 568.428,595.138C575.975,595.096 562.135,576.56 542.899,552.486C530.051,536.406 518.663,523.001 518.663,523.001L518.663,405.678C518.663,404.092 519.143,402.658 519.885,402.029C520.626,401.401 521.487,401.698 522.074,402.786C533.801,424.543 571.924,495.919 575.259,510.428Z" style="fill:rgb(167,139,250);"/>
        </g>
    </g>
</svg>
